<svg width="62" height="81" viewBox="0 0 62 81" fill="none" xmlns="http://www.w3.org/2000/svg">
<path d="M22.4947 80.0677C18.1888 80.0677 14.3283 79.2139 10.9133 77.5064C7.49822 75.7247 4.82559 73.2005 2.89535 69.934C0.965118 66.6674 0 62.7698 0 58.2412C0 54.3807 0.705279 51.0399 2.11584 48.2188C3.60063 45.3234 5.56799 42.8364 8.0179 40.7577C10.4678 38.6047 13.2147 36.7859 16.2585 35.3011C14.0313 32.4057 12.3238 29.6217 11.136 26.9491C9.94814 24.2022 9.35422 21.2326 9.35422 18.0403C9.35422 15.1449 10.0595 12.3238 11.4701 9.57694C12.9549 6.75583 15.1449 4.45439 18.0403 2.67263C21.0099 0.890876 24.6476 0 28.9535 0C32.5171 0 35.7094 0.668157 38.5305 2.00448C41.3516 3.34079 43.5788 5.30815 45.2121 7.90655C46.9196 10.5049 47.7733 13.7344 47.7733 17.5948C47.7733 20.9356 46.9938 23.9052 45.4348 26.5036C43.95 29.0278 41.8713 31.255 39.1986 33.1852C36.526 35.1155 33.4079 36.7487 29.8444 38.085L44.3212 56.7935C45.7317 54.4178 46.9938 51.7823 48.1074 48.8869C49.221 45.9174 50.2604 42.6879 51.2255 39.1986H59.8002C58.6124 44.0242 57.1647 48.5157 55.4572 52.6732C53.8239 56.8306 51.8937 60.5797 49.6665 63.9205L61.2479 78.9541H52.005L44.6553 69.934C41.6857 73.2005 38.3449 75.7247 34.6329 77.5064C30.9209 79.2139 26.8748 80.0677 22.4947 80.0677ZM23.4969 71.493C29.7331 71.493 35.0041 68.8575 39.31 63.5864L21.4924 41.7599C17.632 43.4674 14.6624 45.6204 12.5837 48.2188C10.5792 50.7429 9.57694 53.8239 9.57694 57.4616C9.57694 60.4312 10.208 62.9925 11.4701 65.1455C12.8064 67.2242 14.5139 68.8204 16.5926 69.934C18.7456 70.9733 21.047 71.493 23.4969 71.493ZM25.1673 31.8489C29.9187 29.9929 33.4079 27.9513 35.6351 25.7241C37.9366 23.4969 39.0873 20.8985 39.0873 17.9289C39.0873 14.6624 38.1222 12.1753 36.1919 10.4678C34.2617 8.7603 31.8489 7.90655 28.9535 7.90655C26.9491 7.90655 25.1673 8.35199 23.6083 9.24286C22.1235 10.0595 20.9356 11.2102 20.0448 12.695C19.1539 14.1798 18.7084 15.9245 18.7084 17.9289C18.7084 19.5622 18.9312 21.0841 19.3766 22.4947C19.822 23.831 20.5273 25.2416 21.4924 26.7263C22.4576 28.2111 23.6825 29.9187 25.1673 31.8489Z" fill="black"/>
</svg>
