<svg width="375" height="81" viewBox="0 0 375 81" fill="none" xmlns="http://www.w3.org/2000/svg">
<path d="M363.391 67.8181H374.638V79.0654H363.391V67.8181Z" fill="black"/>
<path d="M324.132 80.179C320.642 80.179 317.227 79.4366 313.886 77.9518C310.546 76.3928 307.502 74.0171 304.755 70.8248C302.008 67.5583 299.818 63.4008 298.185 58.3525C296.626 53.23 295.846 47.1423 295.846 40.0895C295.846 31.3292 297.108 23.9795 299.632 18.0403C302.231 12.1011 305.683 7.60959 309.989 4.56575C314.295 1.52192 319.009 0 324.132 0C328.734 0 332.892 0.965119 336.604 2.89536C340.316 4.82559 343.36 7.6467 345.735 11.3587C348.111 14.9965 349.633 19.4137 350.301 24.6105H340.836C340.167 21.4924 339.091 18.7827 337.606 16.4812C336.196 14.1056 334.377 12.2867 332.149 11.0246C329.922 9.6883 327.287 9.02015 324.243 9.02015C320.902 9.02015 317.821 10.208 315 12.5837C312.253 14.9593 310.026 18.4486 308.318 23.0515C306.685 27.6543 305.869 33.3337 305.869 40.0895C305.869 46.8453 306.722 52.5618 308.43 57.2389C310.137 61.8418 312.402 65.3311 315.223 67.7067C318.118 70.0082 321.236 71.1589 324.577 71.1589C327.844 71.1589 330.702 70.3051 333.152 68.5976C335.602 66.8901 337.532 64.4402 338.942 61.2479C340.353 57.9813 341.058 54.0837 341.058 49.5551H327.138V41.2031H350.301V79.0654H344.733L343.508 67.3727C342.395 69.8968 340.947 72.124 339.165 74.0542C337.458 75.9845 335.342 77.5064 332.818 78.62C330.368 79.6594 327.472 80.179 324.132 80.179Z" fill="black"/>
<path d="M200.617 79.0654L226.007 1.11359H236.698L262.088 79.0654H251.063L244.938 58.4639H217.767L211.642 79.0654H200.617ZM220.216 49.4437H242.488L231.352 11.9155L220.216 49.4437Z" fill="black"/>
<path d="M179.775 1.11359H189.909V79.0654H179.775V1.11359Z" fill="black"/>
<path d="M125.726 1.11359H135.86V70.0453H167.375V79.0654H125.726V1.11359Z" fill="black"/>
<path d="M84.7449 80.179C79.9935 80.179 75.7247 79.2139 71.9385 77.2837C68.1523 75.2792 65.1827 72.124 63.0297 67.8181C60.8768 63.4379 59.8003 57.6472 59.8003 50.446V1.11359H69.934V52.5618C69.934 58.501 71.1961 63.1039 73.7203 66.3704C76.3187 69.5627 79.9935 71.1589 84.7449 71.1589C89.5705 71.1589 93.2453 69.5627 95.7695 66.3704C98.3679 63.1039 99.6671 58.501 99.6671 52.5618V1.11359H109.801V50.446C109.801 57.6472 108.724 63.4379 106.571 67.8181C104.418 72.124 101.449 75.2792 97.6626 77.2837C93.9506 79.2139 89.6447 80.179 84.7449 80.179Z" fill="black"/>
<path d="M44.878 53.0072C44.878 58.2783 44.1356 62.9925 42.6508 67.1499C41.166 71.2331 38.7903 74.4254 35.5238 76.7269C32.3315 79.0283 28.0998 80.179 22.8288 80.179C16.1472 80.179 10.839 78.0632 6.90431 73.8315C2.96959 69.5256 0.668159 63.9576 0 57.1276H10.1337C10.3565 59.7259 10.9875 62.1016 12.0269 64.2546C13.0662 66.4075 14.4768 68.1151 16.2585 69.3771C18.1145 70.565 20.3046 71.1589 22.8288 71.1589C27.0604 71.1589 30.1043 69.7112 31.9603 66.8159C33.8905 63.8463 34.8556 59.6517 34.8556 54.2322V1.11359H44.878V53.0072Z" fill="black"/>
</svg>
