<svg width="1819" height="184" viewBox="0 0 1819 184" fill="none" xmlns="http://www.w3.org/2000/svg">
<path d="M1754.88 183.618C1742.81 183.618 1732.01 180.303 1722.49 173.672C1712.97 166.871 1705.49 156.67 1700.05 143.069C1694.61 129.468 1691.89 112.381 1691.89 91.809C1691.89 71.237 1694.61 54.1503 1700.05 40.549C1705.49 26.9477 1712.97 16.8317 1722.49 10.201C1732.01 3.40034 1742.81 0 1754.88 0C1767.12 0 1778 3.40034 1787.52 10.201C1797.05 16.8317 1804.53 26.9477 1809.97 40.549C1815.41 54.1503 1818.13 71.237 1818.13 91.809C1818.13 112.381 1815.41 129.468 1809.97 143.069C1804.53 156.67 1797.05 166.871 1787.52 173.672C1778 180.303 1767.12 183.618 1754.88 183.618ZM1754.88 162.961C1762.53 162.961 1769.33 160.496 1775.28 155.565C1781.23 150.635 1785.99 142.899 1789.56 132.358C1793.14 121.817 1794.92 108.301 1794.92 91.809C1794.92 75.1474 1793.14 61.6311 1789.56 51.26C1785.99 40.719 1781.23 32.9832 1775.28 28.0528C1769.33 23.1223 1762.53 20.657 1754.88 20.657C1747.4 20.657 1740.69 23.1223 1734.73 28.0528C1728.78 32.9832 1724.02 40.719 1720.45 51.26C1716.88 61.6311 1715.1 75.1474 1715.1 91.809C1715.1 108.301 1716.88 121.817 1720.45 132.358C1724.02 142.899 1728.78 150.635 1734.73 155.565C1740.69 160.496 1747.4 162.961 1754.88 162.961Z" fill="#FBFBFB"/>
<path d="M1603 183.618C1595.01 183.618 1587.19 181.918 1579.54 178.518C1571.89 174.947 1564.92 169.507 1558.63 162.196C1552.34 154.715 1547.32 145.194 1543.58 133.633C1540.01 121.902 1538.23 107.961 1538.23 91.809C1538.23 71.7471 1541.12 54.9154 1546.9 41.3141C1552.85 27.7127 1560.75 17.4267 1570.62 10.456C1580.48 3.48535 1591.27 0 1603 0C1613.54 0 1623.07 2.21022 1631.57 6.63066C1640.07 11.0511 1647.04 17.5117 1652.48 26.0126C1657.92 34.3434 1661.4 44.4594 1662.93 56.3605H1641.26C1639.73 49.2198 1637.26 43.0142 1633.86 37.7437C1630.63 32.3032 1626.47 28.1378 1621.37 25.2475C1616.26 22.1872 1610.23 20.657 1603.26 20.657C1595.61 20.657 1588.55 23.3773 1582.09 28.8178C1575.8 34.2584 1570.7 42.2492 1566.79 52.7902C1563.05 63.3312 1561.18 76.3375 1561.18 91.809C1561.18 107.281 1563.13 120.372 1567.05 131.083C1570.96 141.624 1576.14 149.615 1582.6 155.055C1589.23 160.326 1596.37 162.961 1604.02 162.961C1611.5 162.961 1618.05 161.006 1623.66 157.095C1629.27 153.185 1633.69 147.575 1636.92 140.264C1640.15 132.783 1641.77 123.857 1641.77 113.486H1609.89V94.3593H1662.93V181.068H1650.18L1647.38 154.29C1644.83 160.071 1641.51 165.171 1637.43 169.592C1633.52 174.012 1628.68 177.497 1622.9 180.048C1617.29 182.428 1610.65 183.618 1603 183.618Z" fill="#FBFBFB"/>
<path d="M1483.36 2.55023H1506.56V181.068H1483.36V2.55023Z" fill="#FBFBFB"/>
<path d="M1340.15 181.068V2.55023H1398.3C1414.62 2.55023 1427.37 6.80065 1436.55 15.3015C1445.73 23.6323 1450.32 35.2785 1450.32 50.2399C1450.32 63.5012 1446.5 74.3823 1438.85 82.8831C1431.37 91.214 1421 96.7395 1407.73 99.4598L1410.79 87.9836L1456.19 181.068H1436.55L1388.61 98.9497H1363.36V181.068H1340.15ZM1363.36 78.8027H1398.3C1408.33 78.8027 1415.64 76.3375 1420.23 71.407C1424.99 66.3065 1427.37 59.2508 1427.37 50.2399C1427.37 42.0791 1424.91 35.4485 1419.98 30.348C1415.22 25.2475 1407.99 22.6972 1398.3 22.6972H1363.36V78.8027Z" fill="#FBFBFB"/>
<path d="M1195.21 2.55023H1234.74C1249.53 2.55023 1262.36 5.69553 1273.24 11.9862C1284.3 18.1068 1292.88 27.7977 1299 41.059C1305.29 54.1503 1308.44 71.067 1308.44 91.809C1308.44 112.551 1305.29 129.553 1299 142.814C1292.88 155.905 1284.3 165.596 1273.24 171.887C1262.36 178.007 1249.53 181.068 1234.74 181.068H1195.21V2.55023ZM1218.41 160.411H1238.31C1247.32 160.411 1255.31 158.201 1262.28 153.78C1269.42 149.19 1275.03 141.879 1279.11 131.848C1283.19 121.817 1285.23 108.471 1285.23 91.809C1285.23 75.1474 1283.19 61.8011 1279.11 51.7701C1275.03 41.7391 1269.42 34.5134 1262.28 30.0929C1255.31 25.5025 1247.32 23.2073 1238.31 23.2073H1218.41V160.411Z" fill="#FBFBFB"/>
<path d="M1100.38 183.618C1088.31 183.618 1077.52 180.303 1068 173.672C1058.47 166.871 1050.99 156.67 1045.55 143.069C1040.11 129.468 1037.39 112.381 1037.39 91.809C1037.39 71.237 1040.11 54.1503 1045.55 40.549C1050.99 26.9477 1058.47 16.8317 1068 10.201C1077.52 3.40034 1088.31 0 1100.38 0C1112.62 0 1123.51 3.40034 1133.03 10.201C1142.55 16.8317 1150.03 26.9477 1155.47 40.549C1160.91 54.1503 1163.63 71.237 1163.63 91.809C1163.63 112.381 1160.91 129.468 1155.47 143.069C1150.03 156.67 1142.55 166.871 1133.03 173.672C1123.51 180.303 1112.62 183.618 1100.38 183.618ZM1100.38 162.961C1108.03 162.961 1114.83 160.496 1120.79 155.565C1126.74 150.635 1131.5 142.899 1135.07 132.358C1138.64 121.817 1140.42 108.301 1140.42 91.809C1140.42 75.1474 1138.64 61.6311 1135.07 51.26C1131.5 40.719 1126.74 32.9832 1120.79 28.0528C1114.83 23.1223 1108.03 20.657 1100.38 20.657C1092.9 20.657 1086.19 23.1223 1080.24 28.0528C1074.29 32.9832 1069.53 40.719 1065.96 51.26C1062.38 61.6311 1060.6 75.1474 1060.6 91.809C1060.6 108.301 1062.38 121.817 1065.96 132.358C1069.53 142.899 1074.29 150.635 1080.24 155.565C1086.19 160.496 1092.9 162.961 1100.38 162.961Z" fill="#FBFBFB"/>
<path d="M903.572 181.068V2.55023H961.718C978.039 2.55023 990.791 6.80065 999.971 15.3015C1009.15 23.6323 1013.74 35.2785 1013.74 50.2399C1013.74 63.5012 1009.92 74.3823 1002.27 82.8831C994.786 91.214 984.415 96.7395 971.154 99.4598L974.214 87.9836L1019.61 181.068H999.971L952.027 98.9497H926.779V181.068H903.572ZM926.779 78.8027H961.718C971.749 78.8027 979.059 76.3375 983.65 71.407C988.41 66.3065 990.791 59.2508 990.791 50.2399C990.791 42.0791 988.325 35.4485 983.395 30.348C978.634 25.2475 971.409 22.6972 961.718 22.6972H926.779V78.8027Z" fill="#FBFBFB"/>
<path d="M727.758 183.618C717.897 183.618 709.056 181.663 701.235 177.753C693.415 173.672 687.294 167.892 682.874 160.411C678.453 152.93 676.243 144.004 676.243 133.633C676.243 124.792 677.858 117.142 681.088 110.681C684.489 104.05 688.994 98.3547 694.605 93.5942C700.215 88.6638 706.506 84.4983 713.477 81.098C708.376 74.4674 704.466 68.0917 701.745 61.9711C699.025 55.6805 697.665 48.8798 697.665 41.5691C697.665 34.9385 699.28 28.4778 702.51 22.1872C705.911 15.7266 710.926 10.4561 717.557 6.37566C724.358 2.29526 732.688 0.255066 742.549 0.255066C750.71 0.255066 758.021 1.78522 764.482 4.84552C770.942 7.90582 776.043 12.4113 779.783 18.3619C783.694 24.3124 785.649 31.7082 785.649 40.549C785.649 48.1998 783.864 55.0004 780.293 60.951C776.893 66.7316 772.132 71.8321 766.012 76.2525C759.891 80.673 752.75 84.4133 744.59 87.4736L777.743 130.318C780.973 124.877 783.864 118.842 786.414 112.211C788.964 105.41 791.344 98.0147 793.554 90.0239H813.191C810.471 101.075 807.156 111.361 803.245 120.882C799.505 130.403 795.085 138.989 789.984 146.639L816.507 181.068H795.34L778.508 160.411C771.707 167.892 764.057 173.672 755.556 177.753C747.055 181.663 737.789 183.618 727.758 183.618ZM730.053 163.981C744.335 163.981 756.406 157.946 766.267 145.874L725.463 95.8895C716.622 99.7998 709.821 104.73 705.061 110.681C700.47 116.461 698.175 123.517 698.175 131.848C698.175 138.649 699.62 144.514 702.51 149.445C705.571 154.205 709.481 157.861 714.242 160.411C719.172 162.791 724.443 163.981 730.053 163.981ZM733.879 73.1922C744.76 68.9418 752.75 64.2664 757.851 59.1659C763.121 54.0654 765.757 48.1148 765.757 41.3141C765.757 33.8334 763.547 28.1378 759.126 24.2274C754.706 20.317 749.18 18.3619 742.549 18.3619C737.959 18.3619 733.879 19.3819 730.308 21.4221C726.908 23.2923 724.188 25.9276 722.147 29.3279C720.107 32.7283 719.087 36.7236 719.087 41.3141C719.087 45.0545 719.597 48.5398 720.617 51.7701C721.637 54.8304 723.253 58.0608 725.463 61.4611C727.673 64.8614 730.478 68.7718 733.879 73.1922Z" fill="#FBFBFB"/>
<path d="M459.434 181.068L517.58 2.55023H542.062L600.208 181.068H574.96L560.934 133.888H498.708L484.681 181.068H459.434ZM504.318 113.231H555.323L529.821 27.2877L504.318 113.231Z" fill="#FBFBFB"/>
<path d="M411.702 2.55023H434.909V181.068H411.702V2.55023Z" fill="#FBFBFB"/>
<path d="M287.925 2.55023H311.133V160.411H383.305V181.068H287.925V2.55023Z" fill="#FBFBFB"/>
<path d="M194.074 183.618C183.193 183.618 173.417 181.408 164.746 176.987C156.075 172.397 149.275 165.171 144.344 155.31C139.414 145.279 136.948 132.018 136.948 115.526V2.55023H160.156V120.372C160.156 133.973 163.046 144.514 168.827 151.995C174.777 159.306 183.193 162.961 194.074 162.961C205.125 162.961 213.541 159.306 219.322 151.995C225.272 144.514 228.247 133.973 228.247 120.372V2.55023H251.455V115.526C251.455 132.018 248.989 145.279 244.059 155.31C239.129 165.171 232.328 172.397 223.657 176.987C215.156 181.408 205.295 183.618 194.074 183.618Z" fill="#FBFBFB"/>
<path d="M102.775 121.392C102.775 133.463 101.075 144.259 97.6746 153.78C94.2743 163.131 88.8337 170.442 81.353 175.712C74.0423 180.983 64.3513 183.618 52.2801 183.618C36.9786 183.618 24.8224 178.773 15.8116 169.082C6.80067 159.221 1.53015 146.469 0 130.828H23.2073C23.7173 136.778 25.1625 142.219 27.5427 147.149C29.9229 152.08 33.1533 155.99 37.2337 158.881C41.4841 161.601 46.4996 162.961 52.2801 162.961C61.9711 162.961 68.9418 159.646 73.1922 153.015C77.6126 146.214 79.8229 136.608 79.8229 124.197V2.55023H102.775V121.392Z" fill="#FBFBFB"/>
</svg>
