<svg width="506" height="81" viewBox="0 0 506 81" fill="none" xmlns="http://www.w3.org/2000/svg">
<path d="M494.749 67.8181H505.996V79.0654H494.749V67.8181Z" fill="black"/>
<path d="M457.612 79.0654L433.335 1.11359H444.471L463.18 66.0363L481.888 1.11359H493.024L468.748 79.0654H457.612Z" fill="black"/>
<path d="M371.734 80.179C366.463 80.179 361.749 78.7314 357.592 75.836C353.434 72.8664 350.168 68.412 347.792 62.4728C345.416 56.5336 344.229 49.0725 344.229 40.0895C344.229 31.1065 345.416 23.6454 347.792 17.7062C350.168 11.767 353.434 7.34974 357.592 4.45439C361.749 1.4848 366.463 0 371.734 0C377.08 0 381.831 1.4848 385.988 4.45439C390.146 7.34974 393.412 11.767 395.788 17.7062C398.164 23.6454 399.352 31.1065 399.352 40.0895C399.352 49.0725 398.164 56.5336 395.788 62.4728C393.412 68.412 390.146 72.8664 385.988 75.836C381.831 78.7314 377.08 80.179 371.734 80.179ZM371.734 71.1589C375.075 71.1589 378.045 70.0824 380.643 67.9295C383.242 65.7765 385.32 62.3986 386.879 57.7957C388.438 53.1929 389.218 47.2908 389.218 40.0895C389.218 32.814 388.438 26.9119 386.879 22.3833C385.32 17.7804 383.242 14.4025 380.643 12.2496C378.045 10.0966 375.075 9.02015 371.734 9.02015C368.468 9.02015 365.535 10.0966 362.937 12.2496C360.339 14.4025 358.26 17.7804 356.701 22.3833C355.142 26.9119 354.362 32.814 354.362 40.0895C354.362 47.2908 355.142 53.1929 356.701 57.7957C358.26 62.3986 360.339 65.7765 362.937 67.9295C365.535 70.0824 368.468 71.1589 371.734 71.1589Z" fill="black"/>
<path d="M305.415 80.179C301.926 80.179 298.511 79.4366 295.17 77.9518C291.829 76.3928 288.786 74.0171 286.039 70.8248C283.292 67.5583 281.102 63.4008 279.468 58.3525C277.909 53.23 277.13 47.1423 277.13 40.0895C277.13 31.3292 278.392 23.9795 280.916 18.0403C283.514 12.1011 286.967 7.60959 291.273 4.56575C295.578 1.52192 300.293 0 305.415 0C310.018 0 314.176 0.965119 317.888 2.89536C321.6 4.82559 324.643 7.6467 327.019 11.3587C329.395 14.9965 330.917 19.4137 331.585 24.6105H322.119C321.451 21.4924 320.375 18.7827 318.89 16.4812C317.479 14.1056 315.66 12.2867 313.433 11.0246C311.206 9.6883 308.57 9.02015 305.527 9.02015C302.186 9.02015 299.105 10.208 296.284 12.5837C293.537 14.9593 291.31 18.4486 289.602 23.0515C287.969 27.6543 287.152 33.3337 287.152 40.0895C287.152 46.8453 288.006 52.5618 289.714 57.2389C291.421 61.8418 293.685 65.3311 296.506 67.7067C299.402 70.0082 302.52 71.1589 305.861 71.1589C309.127 71.1589 311.985 70.3051 314.435 68.5976C316.885 66.8901 318.816 64.4402 320.226 61.2479C321.637 57.9813 322.342 54.0837 322.342 49.5551H308.422V41.2031H331.585V79.0654H326.017L324.792 67.3727C323.678 69.8968 322.231 72.124 320.449 74.0542C318.741 75.9845 316.625 77.5064 314.101 78.62C311.651 79.6594 308.756 80.179 305.415 80.179Z" fill="black"/>
<path d="M253.169 1.11359H263.303V79.0654H253.169V1.11359Z" fill="black"/>
<path d="M190.638 79.0654V1.11359H216.028C223.155 1.11359 228.723 2.96958 232.732 6.68158C236.741 10.3193 238.746 15.4048 238.746 21.9379C238.746 27.7286 237.075 32.4799 233.734 36.1919C230.468 39.8297 225.939 42.2425 220.149 43.4303L221.485 38.4191L241.307 79.0654H232.732L211.797 43.2076H200.772V79.0654H190.638ZM200.772 34.4102H216.028C220.408 34.4102 223.601 33.3337 225.605 31.1807C227.684 28.9535 228.723 25.8726 228.723 21.9379C228.723 18.3744 227.647 15.479 225.494 13.2518C223.415 11.0246 220.26 9.91101 216.028 9.91101H200.772V34.4102Z" fill="black"/>
<path d="M127.346 1.11359H144.606C151.065 1.11359 156.67 2.48703 161.422 5.2339C166.247 7.90653 169.997 12.1382 172.669 17.9289C175.416 23.6454 176.789 31.0323 176.789 40.0895C176.789 49.1468 175.416 56.5708 172.669 62.3615C169.997 68.0779 166.247 72.3096 161.422 75.0565C156.67 77.7291 151.065 79.0654 144.606 79.0654H127.346V1.11359ZM137.479 70.0453H146.166C150.1 70.0453 153.589 69.0802 156.633 67.1499C159.751 65.1455 162.201 61.9531 163.983 57.573C165.765 53.1928 166.656 47.365 166.656 40.0895C166.656 32.814 165.765 26.9862 163.983 22.606C162.201 18.2259 159.751 15.0707 156.633 13.1404C153.589 11.136 150.1 10.1337 146.166 10.1337H137.479V70.0453Z" fill="black"/>
<path d="M85.9399 80.179C80.6689 80.179 75.9547 78.7314 71.7973 75.836C67.6398 72.8664 64.3733 68.412 61.9976 62.4728C59.6219 56.5336 58.4341 49.0725 58.4341 40.0895C58.4341 31.1065 59.6219 23.6454 61.9976 17.7062C64.3733 11.767 67.6398 7.34974 71.7973 4.45439C75.9547 1.4848 80.6689 0 85.9399 0C91.2852 0 96.0366 1.4848 100.194 4.45439C104.351 7.34974 107.618 11.767 109.994 17.7062C112.369 23.6454 113.557 31.1065 113.557 40.0895C113.557 49.0725 112.369 56.5336 109.994 62.4728C107.618 68.412 104.351 72.8664 100.194 75.836C96.0366 78.7314 91.2852 80.179 85.9399 80.179ZM85.9399 71.1589C89.2807 71.1589 92.2503 70.0824 94.8487 67.9295C97.4471 65.7765 99.5258 62.3986 101.085 57.7957C102.644 53.1929 103.423 47.2908 103.423 40.0895C103.423 32.814 102.644 26.9119 101.085 22.3833C99.5258 17.7804 97.4471 14.4025 94.8487 12.2496C92.2503 10.0966 89.2807 9.02015 85.9399 9.02015C82.6734 9.02015 79.7409 10.0966 77.1425 12.2496C74.5441 14.4025 72.4654 17.7804 70.9064 22.3833C69.3473 26.9119 68.5678 32.814 68.5678 40.0895C68.5678 47.2908 69.3473 53.1929 70.9064 57.7957C72.4654 62.3986 74.5441 65.7765 77.1425 67.9295C79.7409 70.0824 82.6734 71.1589 85.9399 71.1589Z" fill="black"/>
<path d="M0 79.0654V1.11359H25.39C32.5171 1.11359 38.085 2.96958 42.094 6.68158C46.1029 10.3193 48.1074 15.4048 48.1074 21.9379C48.1074 27.7286 46.437 32.4799 43.0962 36.1919C39.8297 39.8297 35.301 42.2425 29.5103 43.4303L30.8467 38.4191L50.6687 79.0654H42.094L21.1584 43.2076H10.1337V79.0654H0ZM10.1337 34.4102H25.39C29.7702 34.4102 32.9625 33.3337 34.967 31.1807C37.0457 28.9535 38.085 25.8726 38.085 21.9379C38.085 18.3744 37.0086 15.479 34.8556 13.2518C32.7769 11.0246 29.6217 9.91101 25.39 9.91101H10.1337V34.4102Z" fill="black"/>
</svg>
