<svg width="78" height="101" viewBox="0 0 78 101" fill="none" xmlns="http://www.w3.org/2000/svg">
<path d="M28.3341 100.993C22.9104 100.993 18.0478 99.9175 13.7463 97.7668C9.44473 95.5225 6.07829 92.3431 3.64698 88.2285C1.21567 84.114 0 79.2046 0 73.5004C0 68.6378 0.888388 64.4297 2.66512 60.8763C4.53535 57.2293 7.0134 54.0967 10.0993 51.4783C13.1852 48.7665 16.6452 46.4754 20.4791 44.6052C17.6738 40.9582 15.523 37.4515 14.0268 34.0851C12.5306 30.6252 11.7825 26.8847 11.7825 22.8637C11.7825 19.2167 12.6709 15.6632 14.4476 12.2033C16.3178 8.64985 19.0765 5.75098 22.7234 3.50669C26.4639 1.2624 31.046 0.140259 36.4697 0.140259C40.9582 0.140259 44.9793 0.981868 48.5327 2.66508C52.0862 4.3483 54.8915 6.82637 56.9488 10.0993C59.0996 13.3722 60.175 17.44 60.175 22.3026C60.175 26.5106 59.1931 30.2511 57.2293 33.524C55.3591 36.7034 52.7408 39.5088 49.3743 41.9401C46.0079 44.3714 42.0804 46.4287 37.5918 48.1119L55.8267 71.6769C57.6034 68.6845 59.1931 65.3649 60.5958 61.7179C61.9984 57.9774 63.3076 53.9096 64.5233 49.5146H75.3239C73.8277 55.5929 72.0042 61.2503 69.8535 66.487C67.7962 71.7237 65.3649 76.446 62.5595 80.6541L77.1474 99.5902H65.5052L56.2475 88.2285C52.507 92.3431 48.2989 95.5225 43.6233 97.7668C38.9477 99.9175 33.8513 100.993 28.3341 100.993ZM29.5965 90.1923C37.4516 90.1923 44.0909 86.8726 49.5146 80.2333L27.0717 52.7407C22.2091 54.8915 18.4686 57.6034 15.8503 60.8763C13.3255 64.0557 12.0631 67.9364 12.0631 72.5185C12.0631 76.259 12.8579 79.4852 14.4476 82.197C16.1308 84.8153 18.2816 86.8259 20.8999 88.2285C23.6118 89.5377 26.5107 90.1923 29.5965 90.1923ZM31.7006 40.2569C37.6853 37.9191 42.0804 35.3475 44.8858 32.5422C47.7846 29.7368 49.234 26.4639 49.234 22.7234C49.234 18.6089 48.0184 15.4762 45.5871 13.3255C43.1558 11.1747 40.1166 10.0993 36.4697 10.0993C33.9448 10.0993 31.7006 10.6604 29.7368 11.7825C27.8666 12.8111 26.3704 14.2606 25.2482 16.1308C24.1261 18.001 23.565 20.1986 23.565 22.7234C23.565 24.7807 23.8456 26.6977 24.4066 28.4744C24.9677 30.1576 25.8561 31.9343 27.0717 33.8046C28.2874 35.6748 29.8303 37.8256 31.7006 40.2569Z" fill="black"/>
</svg>
