<svg width="331" height="101" viewBox="0 0 331 101" fill="none" xmlns="http://www.w3.org/2000/svg">
<path d="M252.696 99.5902L284.677 1.40268H298.143L330.124 99.5902H316.237L308.523 73.6407H274.297L266.583 99.5902H252.696ZM277.383 62.279H305.437L291.41 15.0087L277.383 62.279Z" fill="black"/>
<path d="M226.443 1.40268H239.207V99.5902H226.443V1.40268Z" fill="black"/>
<path d="M158.364 1.40268H171.128V88.2285H210.824V99.5902H158.364V1.40268Z" fill="black"/>
<path d="M106.744 100.993C100.759 100.993 95.3823 99.7773 90.6132 97.346C85.8441 94.8211 82.1036 90.8469 79.3917 85.4232C76.6799 79.906 75.324 72.612 75.324 63.5414V1.40268H88.0884V66.2065C88.0884 73.6874 89.6781 79.4852 92.8575 83.5997C96.1304 87.6207 100.759 89.6312 106.744 89.6312C112.822 89.6312 117.451 87.6207 120.631 83.5997C123.903 79.4852 125.54 73.6874 125.54 66.2065V1.40268H138.304V63.5414C138.304 72.612 136.948 79.906 134.237 85.4232C131.525 90.8469 127.784 94.8211 123.015 97.346C118.339 99.7773 112.916 100.993 106.744 100.993Z" fill="black"/>
<path d="M56.528 66.7675C56.528 73.4069 55.5929 79.3449 53.7226 84.5816C51.8524 89.7247 48.86 93.7457 44.7455 96.6446C40.7245 99.5435 35.3943 100.993 28.7549 100.993C20.3389 100.993 13.6527 98.3278 8.69661 92.9977C3.74048 87.574 0.841608 80.5606 0 71.9575H12.7644C13.0449 75.2304 13.8398 78.2228 15.1489 80.9346C16.4581 83.6465 18.2348 85.7972 20.4791 87.3869C22.8169 88.8831 25.5755 89.6312 28.7549 89.6312C34.0851 89.6312 37.9191 87.8077 40.2569 84.1608C42.6882 80.4203 43.9039 75.1369 43.9039 68.3105V1.40268H56.528V66.7675Z" fill="black"/>
</svg>
