<svg width="504" height="101" viewBox="0 0 504 101" fill="none" xmlns="http://www.w3.org/2000/svg">
<path d="M439 99.5903V1.40271H470.981C479.958 1.40271 486.972 3.7405 492.021 8.4161C497.071 12.9982 499.596 19.4037 499.596 27.6328C499.596 34.9267 497.492 40.9115 493.284 45.5871C489.169 50.1692 483.465 53.2083 476.171 54.7045L477.854 48.3925L502.822 99.5903H492.021L465.651 54.424H451.764V99.5903H439ZM451.764 43.3428H470.981C476.498 43.3428 480.519 41.9869 483.044 39.275C485.663 36.4697 486.972 32.5889 486.972 27.6328C486.972 23.1442 485.616 19.4973 482.904 16.6919C480.286 13.8865 476.311 12.4839 470.981 12.4839H451.764V43.3428Z" fill="black"/>
</svg>
