<svg width="1000" height="81" viewBox="0 0 1000 81" fill="none" xmlns="http://www.w3.org/2000/svg">
<path d="M363.391 67.8181H374.638V79.0654H363.391V67.8181Z" fill="#FFFDFA"/>
<path d="M324.132 80.179C320.642 80.179 317.227 79.4366 313.886 77.9518C310.546 76.3928 307.502 74.0171 304.755 70.8248C302.008 67.5583 299.818 63.4008 298.185 58.3525C296.626 53.23 295.846 47.1423 295.846 40.0895C295.846 31.3292 297.108 23.9795 299.632 18.0403C302.231 12.1011 305.683 7.60959 309.989 4.56575C314.295 1.52192 319.009 0 324.132 0C328.734 0 332.892 0.965119 336.604 2.89536C340.316 4.82559 343.36 7.6467 345.735 11.3587C348.111 14.9965 349.633 19.4137 350.301 24.6105H340.836C340.167 21.4924 339.091 18.7827 337.606 16.4812C336.196 14.1056 334.377 12.2867 332.149 11.0246C329.922 9.6883 327.287 9.02015 324.243 9.02015C320.902 9.02015 317.821 10.208 315 12.5837C312.253 14.9593 310.026 18.4486 308.318 23.0515C306.685 27.6543 305.869 33.3337 305.869 40.0895C305.869 46.8453 306.722 52.5618 308.43 57.2389C310.137 61.8418 312.402 65.3311 315.223 67.7067C318.118 70.0082 321.236 71.1589 324.577 71.1589C327.844 71.1589 330.702 70.3051 333.152 68.5976C335.602 66.8901 337.532 64.4402 338.942 61.2479C340.353 57.9813 341.058 54.0837 341.058 49.5551H327.138V41.2031H350.301V79.0654H344.733L343.508 67.3727C342.395 69.8968 340.947 72.124 339.165 74.0542C337.458 75.9845 335.342 77.5064 332.818 78.62C330.368 79.6594 327.472 80.179 324.132 80.179Z" fill="#FFFDFA"/>
<path d="M200.617 79.0654L226.007 1.11359H236.698L262.088 79.0654H251.063L244.938 58.4639H217.767L211.642 79.0654H200.617ZM220.216 49.4437H242.488L231.352 11.9155L220.216 49.4437Z" fill="#FFFDFA"/>
<path d="M179.775 1.11359H189.909V79.0654H179.775V1.11359Z" fill="#FFFDFA"/>
<path d="M125.726 1.11359H135.86V70.0453H167.375V79.0654H125.726V1.11359Z" fill="#FFFDFA"/>
<path d="M84.7449 80.179C79.9935 80.179 75.7247 79.2139 71.9385 77.2837C68.1523 75.2792 65.1827 72.124 63.0297 67.8181C60.8768 63.4379 59.8003 57.6472 59.8003 50.446V1.11359H69.934V52.5618C69.934 58.501 71.1961 63.1039 73.7203 66.3704C76.3187 69.5627 79.9935 71.1589 84.7449 71.1589C89.5705 71.1589 93.2453 69.5627 95.7695 66.3704C98.3679 63.1039 99.6671 58.501 99.6671 52.5618V1.11359H109.801V50.446C109.801 57.6472 108.724 63.4379 106.571 67.8181C104.418 72.124 101.449 75.2792 97.6626 77.2837C93.9506 79.2139 89.6447 80.179 84.7449 80.179Z" fill="#FFFDFA"/>
<path d="M44.878 53.0072C44.878 58.2783 44.1356 62.9925 42.6508 67.1499C41.166 71.2331 38.7903 74.4254 35.5238 76.7269C32.3315 79.0283 28.0998 80.179 22.8288 80.179C16.1472 80.179 10.839 78.0632 6.90431 73.8315C2.96959 69.5256 0.668159 63.9576 0 57.1276H10.1337C10.3565 59.7259 10.9875 62.1016 12.0269 64.2546C13.0662 66.4075 14.4768 68.1151 16.2585 69.3771C18.1145 70.565 20.3046 71.1589 22.8288 71.1589C27.0604 71.1589 30.1043 69.7112 31.9603 66.8159C33.8905 63.8463 34.8556 59.6517 34.8556 54.2322V1.11359H44.878V53.0072Z" fill="#FFFDFA"/>
<path d="M988.753 67.8181H1000V79.0654H988.753V67.8181Z" fill="#FFFDFA"/>
<path d="M951.616 79.0654L927.339 1.11359H938.475L957.184 66.0363L975.892 1.11359H987.028L962.752 79.0654H951.616Z" fill="#FFFDFA"/>
<path d="M865.738 80.179C860.467 80.179 855.753 78.7314 851.596 75.836C847.438 72.8664 844.172 68.412 841.796 62.4728C839.42 56.5336 838.232 49.0725 838.232 40.0895C838.232 31.1065 839.42 23.6454 841.796 17.7062C844.172 11.767 847.438 7.34974 851.596 4.45439C855.753 1.4848 860.467 0 865.738 0C871.084 0 875.835 1.4848 879.992 4.45439C884.15 7.34974 887.416 11.767 889.792 17.7062C892.168 23.6454 893.355 31.1065 893.355 40.0895C893.355 49.0725 892.168 56.5336 889.792 62.4728C887.416 68.412 884.15 72.8664 879.992 75.836C875.835 78.7314 871.084 80.179 865.738 80.179ZM865.738 71.1589C869.079 71.1589 872.049 70.0824 874.647 67.9295C877.245 65.7765 879.324 62.3986 880.883 57.7957C882.442 53.1929 883.222 47.2908 883.222 40.0895C883.222 32.814 882.442 26.9119 880.883 22.3833C879.324 17.7804 877.245 14.4025 874.647 12.2496C872.049 10.0966 869.079 9.02015 865.738 9.02015C862.472 9.02015 859.539 10.0966 856.941 12.2496C854.342 14.4025 852.264 17.7804 850.705 22.3833C849.146 26.9119 848.366 32.814 848.366 40.0895C848.366 47.2908 849.146 53.1929 850.705 57.7957C852.264 62.3986 854.342 65.7765 856.941 67.9295C859.539 70.0824 862.472 71.1589 865.738 71.1589Z" fill="#FFFDFA"/>
<path d="M799.419 80.179C795.93 80.179 792.515 79.4366 789.174 77.9518C785.833 76.3928 782.789 74.0171 780.043 70.8248C777.296 67.5583 775.106 63.4008 773.472 58.3525C771.913 53.23 771.134 47.1423 771.134 40.0895C771.134 31.3292 772.396 23.9795 774.92 18.0403C777.518 12.1011 780.971 7.60959 785.276 4.56575C789.582 1.52192 794.297 0 799.419 0C804.022 0 808.179 0.965119 811.891 2.89536C815.603 4.82559 818.647 7.6467 821.023 11.3587C823.399 14.9965 824.921 19.4137 825.589 24.6105H816.123C815.455 21.4924 814.378 18.7827 812.894 16.4812C811.483 14.1056 809.664 12.2867 807.437 11.0246C805.21 9.6883 802.574 9.02015 799.531 9.02015C796.19 9.02015 793.109 10.208 790.288 12.5837C787.541 14.9593 785.314 18.4486 783.606 23.0515C781.973 27.6543 781.156 33.3337 781.156 40.0895C781.156 46.8453 782.01 52.5618 783.717 57.2389C785.425 61.8418 787.689 65.3311 790.51 67.7067C793.406 70.0082 796.524 71.1589 799.865 71.1589C803.131 71.1589 805.989 70.3051 808.439 68.5976C810.889 66.8901 812.819 64.4402 814.23 61.2479C815.641 57.9813 816.346 54.0837 816.346 49.5551H802.426V41.2031H825.589V79.0654H820.021L818.796 67.3727C817.682 69.8968 816.234 72.124 814.453 74.0542C812.745 75.9845 810.629 77.5064 808.105 78.62C805.655 79.6594 802.76 80.179 799.419 80.179Z" fill="#FFFDFA"/>
<path d="M747.173 1.11359H757.307V79.0654H747.173V1.11359Z" fill="#FFFDFA"/>
<path d="M684.642 79.0654V1.11359H710.032C717.159 1.11359 722.727 2.96958 726.736 6.68158C730.745 10.3193 732.75 15.4048 732.75 21.9379C732.75 27.7286 731.079 32.4799 727.738 36.1919C724.472 39.8297 719.943 42.2425 714.152 43.4303L715.489 38.4191L735.311 79.0654H726.736L705.8 43.2076H694.776V79.0654H684.642ZM694.776 34.4102H710.032C714.412 34.4102 717.605 33.3337 719.609 31.1807C721.688 28.9535 722.727 25.8726 722.727 21.9379C722.727 18.3744 721.651 15.479 719.498 13.2518C717.419 11.0246 714.264 9.91101 710.032 9.91101H694.776V34.4102Z" fill="#FFFDFA"/>
<path d="M621.35 1.11359H638.61C645.069 1.11359 650.674 2.48703 655.426 5.2339C660.251 7.90653 664 12.1382 666.673 17.9289C669.42 23.6454 670.793 31.0323 670.793 40.0895C670.793 49.1468 669.42 56.5708 666.673 62.3615C664 68.0779 660.251 72.3096 655.426 75.0565C650.674 77.7291 645.069 79.0654 638.61 79.0654H621.35V1.11359ZM631.483 70.0453H640.169C644.104 70.0453 647.593 69.0802 650.637 67.1499C653.755 65.1455 656.205 61.9531 657.987 57.573C659.769 53.1928 660.66 47.365 660.66 40.0895C660.66 32.814 659.769 26.9862 657.987 22.606C656.205 18.2259 653.755 15.0707 650.637 13.1404C647.593 11.136 644.104 10.1337 640.169 10.1337H631.483V70.0453Z" fill="#FFFDFA"/>
<path d="M579.944 80.179C574.673 80.179 569.959 78.7314 565.801 75.836C561.644 72.8664 558.377 68.412 556.001 62.4728C553.626 56.5336 552.438 49.0725 552.438 40.0895C552.438 31.1065 553.626 23.6454 556.001 17.7062C558.377 11.767 561.644 7.34974 565.801 4.45439C569.959 1.4848 574.673 0 579.944 0C585.289 0 590.04 1.4848 594.198 4.45439C598.355 7.34974 601.622 11.767 603.998 17.7062C606.373 23.6454 607.561 31.1065 607.561 40.0895C607.561 49.0725 606.373 56.5336 603.998 62.4728C601.622 68.412 598.355 72.8664 594.198 75.836C590.04 78.7314 585.289 80.179 579.944 80.179ZM579.944 71.1589C583.285 71.1589 586.254 70.0824 588.853 67.9295C591.451 65.7765 593.53 62.3986 595.089 57.7957C596.648 53.1929 597.427 47.2908 597.427 40.0895C597.427 32.814 596.648 26.9119 595.089 22.3833C593.53 17.7804 591.451 14.4025 588.853 12.2496C586.254 10.0966 583.285 9.02015 579.944 9.02015C576.677 9.02015 573.745 10.0966 571.146 12.2496C568.548 14.4025 566.469 17.7804 564.91 22.3833C563.351 26.9119 562.572 32.814 562.572 40.0895C562.572 47.2908 563.351 53.1929 564.91 57.7957C566.469 62.3986 568.548 65.7765 571.146 67.9295C573.745 70.0824 576.677 71.1589 579.944 71.1589Z" fill="#FFFDFA"/>
<path d="M494.004 79.0654V1.11359H519.394C526.521 1.11359 532.089 2.96958 536.098 6.68158C540.107 10.3193 542.111 15.4048 542.111 21.9379C542.111 27.7286 540.441 32.4799 537.1 36.1919C533.834 39.8297 529.305 42.2425 523.514 43.4303L524.851 38.4191L544.673 79.0654H536.098L515.162 43.2076H504.138V79.0654H494.004ZM504.138 34.4102H519.394C523.774 34.4102 526.966 33.3337 528.971 31.1807C531.05 28.9535 532.089 25.8726 532.089 21.9379C532.089 18.3744 531.012 15.479 528.86 13.2518C526.781 11.0246 523.626 9.91101 519.394 9.91101H504.138V34.4102Z" fill="#FFFDFA"/>
</svg>
