<svg width="331" height="101" viewBox="0 0 331 101" fill="none" xmlns="http://www.w3.org/2000/svg">
<g clip-path="url(#clip0_117_101)">
<path d="M56.528 66.7675C56.528 73.4069 55.5929 79.3449 53.7226 84.5816C51.8524 89.7247 48.86 93.7457 44.7455 96.6446C40.7245 99.5435 35.3943 100.993 28.7549 100.993C20.3389 100.993 13.6527 98.3278 8.69661 92.9977C3.74048 87.574 0.841608 80.5606 0 71.9575H12.7644C13.0449 75.2304 13.8398 78.2228 15.1489 80.9346C16.4581 83.6465 18.2348 85.7972 20.4791 87.3869C22.8169 88.8831 25.5755 89.6312 28.7549 89.6312C34.0851 89.6312 37.9191 87.8077 40.2569 84.1608C42.6882 80.4203 43.9039 75.1369 43.9039 68.3105V1.40271H56.528V66.7675Z" fill="black"/>
</g>
<defs>
<clipPath id="clip0_117_101">
<rect width="331" height="101" fill="white"/>
</clipPath>
</defs>
</svg>
