<svg width="504" height="101" viewBox="0 0 504 101" fill="none" xmlns="http://www.w3.org/2000/svg">
<path d="M468.234 100.993C461.595 100.993 455.657 99.1695 450.42 95.5225C445.183 91.782 441.069 86.1713 438.076 78.6903C435.084 71.2094 433.588 61.8114 433.588 50.4965C433.588 39.1815 435.084 29.7836 438.076 22.3026C441.069 14.8216 445.183 9.25769 450.42 5.61072C455.657 1.87024 461.595 0 468.234 0C474.967 0 480.952 1.87024 486.188 5.61072C491.425 9.25769 495.54 14.8216 498.532 22.3026C501.524 29.7836 503.021 39.1815 503.021 50.4965C503.021 61.8114 501.524 71.2094 498.532 78.6903C495.54 86.1713 491.425 91.782 486.188 95.5225C480.952 99.1695 474.967 100.993 468.234 100.993ZM468.234 89.6312C472.442 89.6312 476.183 88.2753 479.456 85.5635C482.728 82.8516 485.347 78.5968 487.31 72.7991C489.274 67.0013 490.256 59.5671 490.256 50.4965C490.256 41.3323 489.274 33.8981 487.31 28.1939C485.347 22.3961 482.728 18.1413 479.456 15.4295C476.183 12.7176 472.442 11.3617 468.234 11.3617C464.12 11.3617 460.426 12.7176 457.153 15.4295C453.88 18.1413 451.262 22.3961 449.298 28.1939C447.334 33.8981 446.352 41.3323 446.352 50.4965C446.352 59.5671 447.334 67.0013 449.298 72.7991C451.262 78.5968 453.88 82.8516 457.153 85.5635C460.426 88.2753 464.12 89.6312 468.234 89.6312Z" fill="black"/>
<path d="M384.699 100.993C380.304 100.993 376.002 100.058 371.794 98.1876C367.586 96.2238 363.752 93.2314 360.292 89.2104C356.832 85.0959 354.074 79.8592 352.016 73.5004C350.053 67.0481 349.071 59.3801 349.071 50.4965C349.071 39.4621 350.661 30.2044 353.84 22.7234C357.113 15.2425 361.461 9.58498 366.885 5.75099C372.309 1.917 378.247 0 384.699 0C390.497 0 395.733 1.21566 400.409 3.64697C405.084 6.07828 408.918 9.63173 411.911 14.3073C414.903 18.8894 416.82 24.4534 417.662 30.9992H405.739C404.897 27.0717 403.542 23.6585 401.671 20.7597C399.895 17.7673 397.604 15.4762 394.798 13.8865C391.993 12.2033 388.673 11.3617 384.839 11.3617C380.631 11.3617 376.75 12.8579 373.197 15.8503C369.737 18.8427 366.932 23.2377 364.781 29.0355C362.724 34.8332 361.695 41.9869 361.695 50.4965C361.695 59.0061 362.77 66.2065 364.921 72.0977C367.072 77.8955 369.924 82.2905 373.477 85.2829C377.124 88.1818 381.052 89.6312 385.26 89.6312C389.374 89.6312 392.975 88.5558 396.061 86.4051C399.146 84.2543 401.578 81.1684 403.354 77.1474C405.131 73.0329 406.02 68.1235 406.02 62.4192H388.486V51.8991H417.662V99.5903H410.648L409.106 84.8621C407.703 88.0415 405.879 90.8469 403.635 93.2782C401.484 95.7095 398.819 97.6265 395.64 99.0292C392.554 100.338 388.907 100.993 384.699 100.993Z" fill="black"/>
<path d="M318.89 1.40269H331.655V99.5903H318.89V1.40269Z" fill="black"/>
<path d="M240.126 99.5903V1.40269H272.108C281.085 1.40269 288.098 3.74048 293.148 8.41608C298.197 12.9982 300.722 19.4037 300.722 27.6328C300.722 34.9267 298.618 40.9115 294.41 45.5871C290.296 50.1692 284.591 53.2083 277.297 54.7045L278.981 48.3925L303.948 99.5903H293.148L266.777 54.424H252.891V99.5903H240.126ZM252.891 43.3428H272.108C277.625 43.3428 281.646 41.9869 284.171 39.275C286.789 36.4697 288.098 32.5889 288.098 27.6328C288.098 23.1442 286.742 19.4973 284.03 16.6919C281.412 13.8865 277.438 12.4839 272.108 12.4839H252.891V43.3428Z" fill="black"/>
<path d="M160.404 1.40269H182.145C190.281 1.40269 197.341 3.13266 203.326 6.5926C209.404 9.95903 214.126 15.2892 217.493 22.5832C220.953 29.7836 222.683 39.088 222.683 50.4965C222.683 61.9049 220.953 71.2561 217.493 78.5501C214.126 85.7505 209.404 91.0807 203.326 94.5406C197.341 97.907 190.281 99.5903 182.145 99.5903H160.404V1.40269ZM173.168 88.2286H184.109C189.065 88.2286 193.46 87.0129 197.294 84.5816C201.222 82.0568 204.308 78.0357 206.552 72.5185C208.796 67.0013 209.918 59.6606 209.918 50.4965C209.918 41.3323 208.796 33.9916 206.552 28.4744C204.308 22.9572 201.222 18.9829 197.294 16.5516C193.46 14.0268 189.065 12.7644 184.109 12.7644H173.168V88.2286Z" fill="black"/>
<path d="M108.249 100.993C101.61 100.993 95.6719 99.1695 90.4352 95.5225C85.1985 91.782 81.084 86.1713 78.0916 78.6903C75.0992 71.2094 73.603 61.8114 73.603 50.4965C73.603 39.1815 75.0992 29.7836 78.0916 22.3026C81.084 14.8216 85.1985 9.25769 90.4352 5.61072C95.6719 1.87024 101.61 0 108.249 0C114.982 0 120.967 1.87024 126.204 5.61072C131.44 9.25769 135.555 14.8216 138.547 22.3026C141.54 29.7836 143.036 39.1815 143.036 50.4965C143.036 61.8114 141.54 71.2094 138.547 78.6903C135.555 86.1713 131.44 91.782 126.204 95.5225C120.967 99.1695 114.982 100.993 108.249 100.993ZM108.249 89.6312C112.457 89.6312 116.198 88.2753 119.471 85.5635C122.744 82.8516 125.362 78.5968 127.326 72.7991C129.289 67.0013 130.271 59.5671 130.271 50.4965C130.271 41.3323 129.289 33.8981 127.326 28.1939C125.362 22.3961 122.744 18.1413 119.471 15.4295C116.198 12.7176 112.457 11.3617 108.249 11.3617C104.135 11.3617 100.441 12.7176 97.1681 15.4295C93.8951 18.1413 91.2768 22.3961 89.313 28.1939C87.3493 33.8981 86.3674 41.3323 86.3674 50.4965C86.3674 59.5671 87.3493 67.0013 89.313 72.7991C91.2768 78.5968 93.8951 82.8516 97.1681 85.5635C100.441 88.2753 104.135 89.6312 108.249 89.6312Z" fill="black"/>
<path d="M0 99.5903V1.40269H31.9811C40.9583 1.40269 47.9716 3.74048 53.0213 8.41608C58.0709 12.9982 60.5958 19.4037 60.5958 27.6328C60.5958 34.9267 58.4917 40.9115 54.2837 45.5871C50.1692 50.1692 44.465 53.2083 37.171 54.7045L38.8542 48.3925L63.8219 99.5903H53.0213L26.6509 54.424H12.7644V99.5903H0ZM12.7644 43.3428H31.9811C37.4983 43.3428 41.5193 41.9869 44.0441 39.275C46.6625 36.4697 47.9716 32.5889 47.9716 27.6328C47.9716 23.1442 46.6157 19.4973 43.9039 16.6919C41.2856 13.8865 37.3113 12.4839 31.9811 12.4839H12.7644V43.3428Z" fill="black"/>
</svg>
